<svg xmlns="http://www.w3.org/2000/svg" width="16" height="16" viewBox="0 0 16 16">
    <g fill="none" fill-rule="nonzero">
        <path fill="#D8D8D8" fill-opacity="0" d="M0 0h16v16H0z"/>
        <path fill="#404040" d="M1 8.005v-.016c0-.097.035-.242.104-.433a1 1 0 0 1 1.843.123c.036.14.053.246.053.314v.02a4.96 4.96 0 0 0 1.464 3.531 5.009 5.009 0 0 0 7.072 0 4.978 4.978 0 0 0 0-7.053A5.011 5.011 0 0 0 5.2 3.885l1.133 1.13a.498.498 0 0 1-.354.851H2.101a.5.5 0 0 1-.5-.498v-3.87a.5.5 0 0 1 .853-.352l1.313 1.31a7.015 7.015 0 0 1 9.183.625 6.97 6.97 0 0 1 0 9.874 7.013 7.013 0 0 1-9.9 0A6.952 6.952 0 0 1 1 8.005z"/>
    </g>
</svg>
